<svg width="32" height="32" viewBox="0 0 32 32" fill="none" xmlns="http://www.w3.org/2000/svg">
<path d="M16.0009 21.3333C15.8254 21.3343 15.6515 21.3006 15.489 21.2343C15.3266 21.1679 15.1788 21.0702 15.0542 20.9466L7.05423 12.9466C6.80316 12.6955 6.66211 12.355 6.66211 11.9999C6.66211 11.6449 6.80316 11.3043 7.05423 11.0533C7.3053 10.8022 7.64583 10.6611 8.0009 10.6611C8.35597 10.6611 8.69649 10.8022 8.94757 11.0533L16.0009 18.1199L23.0542 11.0666C23.3093 10.8482 23.6374 10.734 23.973 10.747C24.3085 10.7599 24.6269 10.899 24.8643 11.1365C25.1018 11.374 25.2409 11.6923 25.2538 12.0279C25.2668 12.3634 25.1527 12.6915 24.9342 12.9466L16.9342 20.9466C16.6859 21.1929 16.3507 21.3318 16.0009 21.3333Z" fill="black"/>
</svg>
