<svg width="20" height="20" viewBox="0 0 20 20" fill="none" xmlns="http://www.w3.org/2000/svg">
<path d="M10.9119 10.0088L16.0612 4.88759C16.3081 4.64321 16.3081 4.24759 16.0612 4.00384C15.815 3.75946 15.415 3.75946 15.1687 4.00384L10.0237 9.12071L4.83123 3.92759C4.58498 3.68071 4.18498 3.68071 3.93873 3.92759C3.69248 4.17509 3.69248 4.57571 3.93873 4.82259L9.12748 10.012L3.91998 15.1907C3.67373 15.4351 3.67373 15.8307 3.91998 16.0745C4.16623 16.3188 4.56623 16.3188 4.81248 16.0745L10.0156 10.9001L15.1875 16.0726C15.4337 16.3195 15.8337 16.3195 16.08 16.0726C16.3262 15.8251 16.3262 15.4245 16.08 15.1776L10.9119 10.0088Z" fill="#ADADAD"/>
</svg>
