<svg width="40" height="40" viewBox="0 0 40 40" fill="none" xmlns="http://www.w3.org/2000/svg">
<path d="M21.8238 20.0174L32.1226 9.77493C32.6163 9.28618 32.6163 8.49493 32.1226 8.00743C31.6301 7.51868 30.8301 7.51868 30.3376 8.00743L20.0476 18.2412L9.66258 7.85493C9.17008 7.36118 8.37008 7.36118 7.87758 7.85493C7.38508 8.34993 7.38508 9.15118 7.87758 9.64493L18.2551 20.0237L7.84008 30.3812C7.34758 30.8699 7.34758 31.6612 7.84008 32.1487C8.33258 32.6374 9.13258 32.6374 9.62508 32.1487L20.0313 21.7999L30.3751 32.1449C30.8676 32.6387 31.6676 32.6387 32.1601 32.1449C32.6526 31.6499 32.6526 30.8487 32.1601 30.3549L21.8238 20.0174Z" fill="#ADADAD"/>
</svg>
