<svg width="20" height="20" viewBox="0 0 20 20" fill="none" xmlns="http://www.w3.org/2000/svg">
<path d="M13.808 13.4588C15.1296 12.0726 15.8709 10.2333 15.8798 8.3181C15.8887 6.40286 15.1646 4.55678 13.8559 3.15839C12.5472 1.76001 10.753 0.91528 8.84141 0.797426C6.92978 0.679573 5.04549 1.29752 3.57492 2.52456C2.10434 3.7516 1.15891 5.49475 0.932497 7.39658C0.70608 9.29841 1.21583 11.2148 2.35722 12.7528C3.49861 14.2908 5.18515 15.3339 7.07102 15.6681C8.95689 16.0024 10.8992 15.6025 12.4996 14.5504L17.708 19.7588L18.8913 18.5754L13.808 13.4588ZM11.308 13.3421C10.0333 14.113 8.51401 14.3724 7.0558 14.0682C5.59758 13.764 4.30874 12.9187 3.44866 11.7025C2.58858 10.4862 2.22112 8.98937 2.42024 7.51313C2.61936 6.03689 3.37027 4.69088 4.52185 3.74599C5.67342 2.80111 7.14017 2.32751 8.62687 2.42051C10.1136 2.51351 11.5099 3.16621 12.5347 4.24724C13.5595 5.32827 14.1369 6.75738 14.1505 8.24692C14.164 9.73647 13.6129 11.1759 12.608 12.2754C12.2339 12.6887 11.8016 13.0452 11.3246 13.3338L11.308 13.3421Z" fill="black"/>
</svg>
