<svg width="4" height="14" viewBox="0 0 4 14" fill="none" xmlns="http://www.w3.org/2000/svg">
<path d="M3.25199 1.26808C3.25199 1.95791 2.69277 2.51713 2.00295 2.51713C1.31312 2.51713 0.753906 1.95791 0.753906 1.26808C0.753906 0.578258 1.31312 0.019043 2.00295 0.019043C2.69277 0.019043 3.25199 0.578258 3.25199 1.26808Z" fill="black"/>
<path d="M3.25199 6.76387C3.25199 7.45369 2.69277 8.01291 2.00295 8.01291C1.31312 8.01291 0.753906 7.45369 0.753906 6.76387C0.753906 6.07404 1.31312 5.51483 2.00295 5.51483C2.69277 5.51483 3.25199 6.07404 3.25199 6.76387Z" fill="black"/>
<path d="M3.25199 12.2597C3.25199 12.9495 2.69277 13.5087 2.00295 13.5087C1.31312 13.5087 0.753906 12.9495 0.753906 12.2597C0.753906 11.5698 1.31312 11.0106 2.00295 11.0106C2.69277 11.0106 3.25199 11.5698 3.25199 12.2597Z" fill="black"/>
</svg>
