<svg width="25" height="25" viewBox="0 0 25 25" fill="none" xmlns="http://www.w3.org/2000/svg">
<path d="M24.2676 1.02539H0.732422C0.32793 1.02539 0 1.35332 0 1.75781V3.22266C0 3.62715 0.32793 3.95508 0.732422 3.95508H24.2676C24.6721 3.95508 25 3.62715 25 3.22266V1.75781C25 1.35332 24.6721 1.02539 24.2676 1.02539Z" fill="black"/>
<path d="M3.71094 23.2422C3.71094 23.6467 4.03887 23.9746 4.44336 23.9746H5.62446C5.9397 23.9746 6.21963 23.7729 6.31929 23.4738L6.64062 22.5098H3.71094V23.2422Z" fill="black"/>
<path d="M18.6807 23.4738C18.7804 23.7729 19.0603 23.9746 19.3755 23.9746H20.5566C20.9611 23.9746 21.2891 23.6467 21.2891 23.2422V22.5098H18.3594L18.6807 23.4738Z" fill="black"/>
<path d="M1.51367 12.5H23.4863V5.41992H1.51367V12.5ZM11.0352 6.88477H13.9648C14.3693 6.88477 14.6973 7.2127 14.6973 7.61719C14.6973 8.02168 14.3693 8.34961 13.9648 8.34961H11.0352C10.6307 8.34961 10.3027 8.02168 10.3027 7.61719C10.3027 7.2127 10.6307 6.88477 11.0352 6.88477Z" fill="black"/>
<path d="M1.51367 20.3125C1.51367 20.717 1.8416 21.0449 2.24609 21.0449H22.7539C23.1584 21.0449 23.4863 20.717 23.4863 20.3125V13.9648H1.51367V20.3125ZM11.0352 15.4297H13.9648C14.3693 15.4297 14.6973 15.7576 14.6973 16.1621C14.6973 16.5666 14.3693 16.8945 13.9648 16.8945H11.0352C10.6307 16.8945 10.3027 16.5666 10.3027 16.1621C10.3027 15.7576 10.6307 15.4297 11.0352 15.4297Z" fill="black"/>
</svg>
