<svg width="15" height="16" viewBox="0 0 15 16" fill="none" xmlns="http://www.w3.org/2000/svg">
<path d="M0.46875 3.14425H7.60562C7.82071 4.12332 8.69505 4.85835 9.73778 4.85835C10.7805 4.85835 11.6549 4.12335 11.87 3.14425H14.5312C14.7901 3.14425 15 2.93437 15 2.6755C15 2.41663 14.7901 2.20675 14.5312 2.20675H11.8697C11.6542 1.22817 10.7787 0.492676 9.73778 0.492676C8.69634 0.492676 7.82121 1.22806 7.60579 2.20675H0.46875C0.209883 2.20675 0 2.41663 0 2.6755C0 2.93437 0.209883 3.14425 0.46875 3.14425ZM8.49249 2.67673C8.49249 2.67506 8.49252 2.67336 8.49252 2.67169C8.49457 1.98711 9.05317 1.43021 9.73778 1.43021C10.4214 1.43021 10.9801 1.98635 10.983 2.67061L10.9831 2.67749C10.982 3.36324 10.4238 3.92088 9.73778 3.92088C9.05206 3.92088 8.49401 3.3638 8.49246 2.67846L8.49249 2.67673ZM14.5312 12.8556H11.8697C11.6542 11.8771 10.7787 11.1415 9.73778 11.1415C8.69634 11.1415 7.82121 11.8769 7.60579 12.8556H0.46875C0.209883 12.8556 0 13.0655 0 13.3244C0 13.5833 0.209883 13.7931 0.46875 13.7931H7.60562C7.82071 14.7722 8.69505 15.5072 9.73778 15.5072C10.7805 15.5072 11.6549 14.7722 11.87 13.7931H14.5312C14.7901 13.7931 15 13.5833 15 13.3244C15 13.0655 14.7901 12.8556 14.5312 12.8556ZM9.73778 14.5697C9.05206 14.5697 8.49401 14.0126 8.49246 13.3273L8.49249 13.3256C8.49249 13.3239 8.49252 13.3222 8.49252 13.3205C8.49457 12.636 9.05317 12.079 9.73778 12.079C10.4214 12.079 10.9801 12.6352 10.983 13.3194L10.9831 13.3263C10.9821 14.0121 10.4239 14.5697 9.73778 14.5697ZM14.5312 7.53119H7.39438C7.17929 6.55212 6.30495 5.81712 5.26222 5.81712C4.21948 5.81712 3.34515 6.55212 3.13005 7.53119H0.46875C0.209883 7.53119 0 7.74107 0 7.99994C0 8.25884 0.209883 8.46869 0.46875 8.46869H3.13028C3.34582 9.44724 4.22133 10.1828 5.26222 10.1828C6.30366 10.1828 7.17879 9.44735 7.39421 8.46869H14.5312C14.7901 8.46869 15 8.25884 15 7.99994C15 7.74107 14.7901 7.53119 14.5312 7.53119ZM6.50751 7.99871C6.50751 8.00041 6.50748 8.00208 6.50748 8.00375C6.50543 8.68833 5.94683 9.24523 5.26222 9.24523C4.57857 9.24523 4.01994 8.68909 4.01698 8.00486L4.01689 7.99801C4.01792 7.31217 4.57617 6.75462 5.26222 6.75462C5.94794 6.75462 6.50599 7.31167 6.50754 7.99704L6.50751 7.99871Z" fill="black"/>
</svg>
