<svg width="46" height="46" viewBox="0 0 46 46" fill="none" xmlns="http://www.w3.org/2000/svg">
<g clip-path="url(#clip0_957_2938)">
<path d="M22.9987 3.83301C33.5787 3.83301 42.1654 12.4197 42.1654 22.9997C42.1654 33.5797 33.5787 42.1663 22.9987 42.1663C12.4187 42.1663 3.83203 33.5797 3.83203 22.9997C3.83203 12.4197 12.4187 3.83301 22.9987 3.83301ZM11.5428 29.547C14.3564 33.7445 18.5808 36.4163 23.3054 36.4163C28.028 36.4163 32.2543 33.7464 35.066 29.547C31.8762 26.5658 27.6714 24.9102 23.3054 24.9163C18.9386 24.9097 14.7331 26.5654 11.5428 29.547ZM22.9987 21.083C24.5237 21.083 25.9862 20.4772 27.0646 19.3989C28.1429 18.3205 28.7487 16.858 28.7487 15.333C28.7487 13.808 28.1429 12.3455 27.0646 11.2671C25.9862 10.1888 24.5237 9.58301 22.9987 9.58301C21.4737 9.58301 20.0112 10.1888 18.9328 11.2671C17.8545 12.3455 17.2487 13.808 17.2487 15.333C17.2487 16.858 17.8545 18.3205 18.9328 19.3989C20.0112 20.4772 21.4737 21.083 22.9987 21.083Z" fill="black"/>
</g>
<defs>
<clipPath id="clip0_957_2938">
<rect width="46" height="46" fill="white"/>
</clipPath>
</defs>
</svg>
