<svg width="7" height="4" viewBox="0 0 7 4" fill="none" xmlns="http://www.w3.org/2000/svg">
<path d="M6.65625 2.10547C6.65625 2.55859 6.61328 2.875 6.52734 3.05469C6.44141 3.23438 6.30469 3.32422 6.11719 3.32422H1.24219C1.04688 3.32422 0.90625 3.23438 0.820312 3.05469C0.734375 2.86719 0.691406 2.55078 0.691406 2.10547C0.691406 1.66797 0.734375 1.35938 0.820312 1.17969C0.90625 1 1.04688 0.910156 1.24219 0.910156H6.11719C6.21094 0.910156 6.28906 0.929688 6.35156 0.96875C6.42188 1.00781 6.48047 1.07422 6.52734 1.16797C6.57422 1.26172 6.60547 1.38672 6.62109 1.54297C6.64453 1.69922 6.65625 1.88672 6.65625 2.10547Z" fill="#DE2B2B"/>
</svg>
