<svg width="40" height="40" viewBox="0 0 40 40" fill="none" xmlns="http://www.w3.org/2000/svg">
<path fill-rule="evenodd" clip-rule="evenodd" d="M37.7068 17.2467C37.8452 18.145 37.9168 19.0633 37.9168 20C37.9168 29.8883 29.8885 37.9167 20.0002 37.9167C10.1118 37.9167 2.0835 29.8883 2.0835 20C2.0835 10.1117 10.1118 2.08333 20.0002 2.08333C20.7652 2.08333 21.5185 2.13166 22.2585 2.22499C22.6568 2.27499 23.0052 2.51166 23.1985 2.86333C23.3902 3.21333 23.4035 3.63666 23.2335 3.99833C23.0302 4.42833 22.9168 4.91 22.9168 5.41666C22.9168 6.5 23.4352 7.46333 24.2368 8.07166C24.6235 8.36666 24.8052 8.86 24.7002 9.33666C24.6235 9.685 24.5835 10.045 24.5835 10.4167C24.5835 13.1767 26.8235 15.4167 29.5835 15.4167C29.7485 15.4167 29.9102 15.4083 30.0718 15.3933C30.4885 15.3533 30.8968 15.5233 31.1618 15.8483C31.7735 16.6017 32.7052 17.0833 33.7502 17.0833C34.4902 17.0833 35.1752 16.8417 35.7285 16.4333C36.0802 16.1733 36.5418 16.115 36.9468 16.2817C37.3518 16.4483 37.6385 16.815 37.7068 17.2467ZM27.9168 22.9167C26.7668 22.9167 25.8335 23.85 25.8335 25C25.8335 26.15 26.7668 27.0833 27.9168 27.0833C29.0668 27.0833 30.0002 26.15 30.0002 25C30.0002 23.85 29.0668 22.9167 27.9168 22.9167ZM15.4168 27.0833C14.2668 27.0833 13.3335 28.0167 13.3335 29.1667C13.3335 30.3167 14.2668 31.25 15.4168 31.25C16.5668 31.25 17.5002 30.3167 17.5002 29.1667C17.5002 28.0167 16.5668 27.0833 15.4168 27.0833ZM15.8168 9.08333C15.1268 9.08333 14.5668 9.64333 14.5668 10.3333C14.5668 11.0233 15.1268 11.5833 15.8168 11.5833C16.5068 11.5833 17.0668 11.0233 17.0668 10.3333C17.0668 9.64333 16.5068 9.08333 15.8168 9.08333ZM20.4168 22.9167C19.7268 22.9167 19.1668 23.4767 19.1668 24.1667C19.1668 24.8567 19.7268 25.4167 20.4168 25.4167C21.1068 25.4167 21.6668 24.8567 21.6668 24.1667C21.6668 23.4767 21.1068 22.9167 20.4168 22.9167ZM10.8335 17.9167C10.1435 17.9167 9.5835 18.4767 9.5835 19.1667C9.5835 19.8567 10.1435 20.4167 10.8335 20.4167C11.5235 20.4167 12.0835 19.8567 12.0835 19.1667C12.0835 18.4767 11.5235 17.9167 10.8335 17.9167ZM18.7502 14.1667C17.6002 14.1667 16.6668 15.1 16.6668 16.25C16.6668 17.4 17.6002 18.3333 18.7502 18.3333C19.9002 18.3333 20.8335 17.4 20.8335 16.25C20.8335 15.1 19.9002 14.1667 18.7502 14.1667Z" fill="black"/>
</svg>
