<svg width="20" height="20" viewBox="0 0 20 20" fill="none" xmlns="http://www.w3.org/2000/svg">
<path d="M10.9906 10.3423L16.1964 5.15913C16.4459 4.9118 16.4459 4.51139 16.1964 4.26469C15.9474 4.01736 15.543 4.01736 15.2941 4.26469L10.0927 9.44345L4.8433 4.18752C4.59435 3.93766 4.18997 3.93766 3.94102 4.18752C3.69207 4.43801 3.69207 4.84348 3.94102 5.09334L9.18662 10.3455L3.92206 15.5869C3.67311 15.8342 3.67311 16.2346 3.92206 16.4813C4.17101 16.7286 4.57539 16.7286 4.82434 16.4813L10.0845 11.2443L15.313 16.4794C15.562 16.7293 15.9664 16.7293 16.2153 16.4794C16.4643 16.2289 16.4643 15.8234 16.2153 15.5736L10.9906 10.3423Z" fill="black"/>
</svg>
