<svg width="65" height="65" viewBox="0 0 65 65" fill="none" xmlns="http://www.w3.org/2000/svg">
<g clip-path="url(#clip0_904_6812)">
<path d="M32.5 0C14.5784 0 0 14.5798 0 32.5C0 50.4202 14.5784 65 32.5 65C50.4216 65 65 50.4202 65 32.5C65 14.5798 50.4216 0 32.5 0ZM45.4201 33.6386L26.4619 45.8261C26.2397 45.9702 25.9831 46.0417 25.7292 46.0417C25.507 46.0417 25.2822 45.9861 25.0812 45.8764C24.6448 45.6384 24.375 45.1834 24.375 44.6875V20.3125C24.375 19.8166 24.6448 19.3616 25.0812 19.1236C25.5097 18.8882 26.0466 18.9027 26.4619 19.1739L45.4201 31.3614C45.8063 31.6099 46.0417 32.0398 46.0417 32.5C46.0417 32.9602 45.8063 33.3899 45.4201 33.6386Z" fill="#FECA0A"/>
</g>
<defs>
<clipPath id="clip0_904_6812">
<rect width="65" height="65" fill="white"/>
</clipPath>
</defs>
</svg>
