<svg width="24" height="24" viewBox="0 0 24 24" fill="none" xmlns="http://www.w3.org/2000/svg">
<path fill-rule="evenodd" clip-rule="evenodd" d="M3.56235 12.565C2.51792 11.5113 1.9314 10.0872 1.9314 8.60231C1.9314 7.10923 2.52409 5.67687 3.57984 4.62112C4.6356 3.56536 6.06797 2.97266 7.56105 2.97266C9.05413 2.97266 10.4865 3.56536 11.5423 4.62112L11.9271 5.00596L12.3119 4.62112C13.3677 3.56536 14.799 2.97266 16.2921 2.97266C17.7862 2.97266 19.2176 3.56536 20.2733 4.62112C21.3291 5.67687 21.9228 7.10923 21.9228 8.60231C21.9228 10.0872 21.3363 11.5113 20.2908 12.565L12.6536 20.6519C12.4653 20.8515 12.2018 20.9647 11.9271 20.9647C11.6523 20.9647 11.3889 20.8515 11.2006 20.6519L3.56235 12.565ZM11.9271 18.5095L18.8399 11.1902L18.8605 11.1697C19.5407 10.4885 19.9235 9.56546 19.9235 8.60231C19.9235 7.63917 19.5407 6.71616 18.8605 6.03496C18.1793 5.35376 17.2553 4.97097 16.2921 4.97097C15.33 4.97097 14.406 5.35376 13.7248 6.03496L12.634 7.12673C12.243 7.51672 11.6102 7.51672 11.2202 7.12673L10.1284 6.03496C9.44823 5.35376 8.52419 4.97097 7.56105 4.97097C6.5979 4.97097 5.6749 5.35376 4.9937 6.03496C4.3125 6.71616 3.93074 7.63917 3.93074 8.60231C3.93074 9.56546 4.3125 10.4885 4.9937 11.1697C5.0009 11.1769 5.00707 11.183 5.01325 11.1902L11.9271 18.5095Z" fill="black"/>
</svg>
