<svg width="30" height="30" viewBox="0 0 30 30" fill="none" xmlns="http://www.w3.org/2000/svg">
<path d="M16.4858 15.5135L24.2945 7.73874C24.6689 7.36774 24.6689 6.76713 24.2945 6.39708C23.9211 6.02608 23.3145 6.02608 22.9411 6.39708L15.139 14.1652L7.26495 6.28132C6.89152 5.90653 6.28495 5.90653 5.91153 6.28132C5.53811 6.65706 5.53811 7.26527 5.91153 7.64006L13.7799 15.5183L5.88309 23.3803C5.50967 23.7513 5.50967 24.3519 5.88309 24.722C6.25652 25.093 6.86309 25.093 7.23651 24.722L15.1267 16.8666L22.9695 24.7191C23.343 25.0939 23.9495 25.0939 24.323 24.7191C24.6964 24.3434 24.6964 23.7352 24.323 23.3604L16.4858 15.5135Z" fill="black"/>
</svg>
