<svg width="24" height="24" viewBox="0 0 24 24" fill="none" xmlns="http://www.w3.org/2000/svg">
<path d="M18.36 15.75H7.35998C7.16107 15.75 6.9703 15.671 6.82965 15.5303C6.689 15.3897 6.60998 15.1989 6.60998 15C6.60998 14.8011 6.689 14.6103 6.82965 14.4697C6.9703 14.329 7.16107 14.25 7.35998 14.25H18.36C18.6478 14.2508 18.9269 14.1515 19.1495 13.969C19.3721 13.7866 19.5243 13.5324 19.58 13.25L21 6.05C21.0152 6.01709 21.0231 5.98126 21.0231 5.945C21.0231 5.90874 21.0152 5.87291 21 5.84C20.9763 5.8126 20.9472 5.79044 20.9145 5.77494C20.8818 5.75944 20.8462 5.75095 20.81 5.75H5.53998C5.34107 5.75 5.1503 5.67098 5.00965 5.53033C4.869 5.38968 4.78998 5.19891 4.78998 5C4.78998 4.80109 4.869 4.61032 5.00965 4.46967C5.1503 4.32902 5.34107 4.25 5.53998 4.25H20.78C21.0383 4.25129 21.2932 4.30944 21.5266 4.42032C21.7599 4.53121 21.966 4.6921 22.1302 4.89159C22.2943 5.09108 22.4126 5.32426 22.4765 5.57458C22.5404 5.8249 22.5484 6.08623 22.5 6.34L21.06 13.54C20.9316 14.1621 20.5932 14.7212 20.1017 15.1235C19.6101 15.5259 18.9952 15.7471 18.36 15.75Z" fill="black"/>
<path d="M7.32 15.7501C7.14393 15.7484 6.97388 15.6857 6.83891 15.5726C6.70394 15.4596 6.61243 15.3031 6.58 15.1301L4.41 3.00005C4.39662 2.9436 4.36474 2.89325 4.31943 2.85701C4.27413 2.82077 4.21801 2.80072 4.16 2.80005H2C1.80109 2.80005 1.61032 2.72103 1.46967 2.58038C1.32902 2.43973 1.25 2.24896 1.25 2.05005C1.25 1.85114 1.32902 1.66037 1.46967 1.51972C1.61032 1.37907 1.80109 1.30005 2 1.30005H4.16C4.56226 1.29926 4.95279 1.43551 5.26726 1.68635C5.58172 1.9372 5.80137 2.28768 5.89 2.68005L8.06 14.8701C8.07725 14.9672 8.07515 15.0669 8.05381 15.1633C8.03247 15.2597 7.99231 15.3509 7.93564 15.4317C7.87896 15.5125 7.80689 15.5814 7.72356 15.6343C7.64022 15.6872 7.54726 15.7231 7.45 15.7401L7.32 15.7501Z" fill="black"/>
<path d="M10 22.75C9.55499 22.75 9.11998 22.618 8.74997 22.3708C8.37996 22.1236 8.09157 21.7722 7.92127 21.361C7.75097 20.9499 7.70642 20.4975 7.79323 20.061C7.88005 19.6246 8.09434 19.2237 8.40901 18.909C8.72368 18.5943 9.12459 18.3801 9.56105 18.2932C9.9975 18.2064 10.4499 18.251 10.861 18.4213C11.2722 18.5916 11.6236 18.88 11.8708 19.25C12.118 19.62 12.25 20.055 12.25 20.5C12.25 21.0967 12.0129 21.669 11.591 22.091C11.169 22.5129 10.5967 22.75 10 22.75ZM10 19.75C9.85167 19.75 9.70666 19.794 9.58332 19.8764C9.45999 19.9588 9.36386 20.0759 9.30709 20.213C9.25033 20.35 9.23547 20.5008 9.26441 20.6463C9.29335 20.7918 9.36478 20.9254 9.46967 21.0303C9.57456 21.1352 9.7082 21.2066 9.85368 21.2356C9.99917 21.2645 10.15 21.2497 10.287 21.1929C10.4241 21.1361 10.5412 21.04 10.6236 20.9167C10.706 20.7933 10.75 20.6483 10.75 20.5C10.7474 20.3019 10.6676 20.1126 10.5275 19.9725C10.3874 19.8324 10.1981 19.7526 10 19.75Z" fill="black"/>
<path d="M17.5 22.75C17.055 22.75 16.62 22.618 16.25 22.3708C15.88 22.1236 15.5916 21.7722 15.4213 21.361C15.251 20.9499 15.2064 20.4975 15.2932 20.061C15.3801 19.6246 15.5943 19.2237 15.909 18.909C16.2237 18.5943 16.6246 18.3801 17.061 18.2932C17.4975 18.2064 17.9499 18.251 18.361 18.4213C18.7722 18.5916 19.1236 18.88 19.3708 19.25C19.618 19.62 19.75 20.055 19.75 20.5C19.75 21.0967 19.5129 21.669 19.091 22.091C18.669 22.5129 18.0967 22.75 17.5 22.75ZM17.5 19.75C17.3517 19.75 17.2067 19.794 17.0833 19.8764C16.96 19.9588 16.8639 20.0759 16.8071 20.213C16.7503 20.35 16.7355 20.5008 16.7644 20.6463C16.7934 20.7918 16.8648 20.9254 16.9697 21.0303C17.0746 21.1352 17.2082 21.2066 17.3537 21.2356C17.4992 21.2645 17.65 21.2497 17.787 21.1929C17.9241 21.1361 18.0412 21.04 18.1236 20.9167C18.206 20.7933 18.25 20.6483 18.25 20.5C18.2474 20.3019 18.1676 20.1126 18.0275 19.9725C17.8874 19.8324 17.6981 19.7526 17.5 19.75Z" fill="black"/>
<path d="M20 19.75H7C6.27065 19.75 5.57118 19.4603 5.05546 18.9445C4.53973 18.4288 4.25 17.7293 4.25 17C4.25 16.2707 4.53973 15.5712 5.05546 15.0555C5.57118 14.5397 6.27065 14.25 7 14.25H11C11.1989 14.25 11.3897 14.329 11.5303 14.4697C11.671 14.6103 11.75 14.8011 11.75 15C11.75 15.1989 11.671 15.3897 11.5303 15.5303C11.3897 15.671 11.1989 15.75 11 15.75H7C6.66848 15.75 6.35054 15.8817 6.11612 16.1161C5.8817 16.3505 5.75 16.6685 5.75 17C5.75 17.3315 5.8817 17.6495 6.11612 17.8839C6.35054 18.1183 6.66848 18.25 7 18.25H20C20.1989 18.25 20.3897 18.329 20.5303 18.4697C20.671 18.6103 20.75 18.8011 20.75 19C20.75 19.1989 20.671 19.3897 20.5303 19.5303C20.3897 19.671 20.1989 19.75 20 19.75Z" fill="black"/>
</svg>
