<svg width="25" height="25" viewBox="0 0 25 25" fill="none" xmlns="http://www.w3.org/2000/svg">
<path d="M19.4621 12.9734H5.54162C4.99238 12.9734 4.54541 13.4204 4.54541 13.9696C4.54541 14.5188 4.99238 14.962 5.54162 14.962H19.4621C20.0113 14.962 20.4583 14.5151 20.4583 13.9696C20.4545 13.4204 20.0075 12.9734 19.4621 12.9734Z" fill="black"/>
<path d="M16.9165 18.9394H8.09075L8.4165 16H6.0415V23.9545H7.53393L7.98469 19.9167C8.01499 19.9242 8.04529 19.9356 8.07938 19.9356H16.9317C16.9657 19.9356 16.996 19.9242 17.0301 19.9167L17.4809 23.9545H18.9733V16H16.5983L16.9165 18.9394Z" fill="black"/>
<path d="M18.5532 11.981L19.3373 2.65147C19.4017 1.78026 18.7198 1.04541 17.8524 1.04541H7.15166C6.28045 1.04541 5.59484 1.78026 5.66681 2.65147L6.4509 11.9848H18.5532V11.981Z" fill="black"/>
</svg>
