<svg width="25" height="25" viewBox="0 0 25 25" fill="none" xmlns="http://www.w3.org/2000/svg">
<path d="M17.4999 16.75C17.6988 16.75 17.8896 16.671 18.0303 16.5303C18.1709 16.3897 18.2499 16.1989 18.2499 16C18.2499 15.8011 18.1709 15.6103 18.0303 15.4697C17.8896 15.329 17.6988 15.25 17.4999 15.25H13.2499V9.74998H19.9999C20.1096 9.74995 20.2179 9.72589 20.3172 9.67949C20.4166 9.63308 20.5045 9.56546 20.5749 9.48139C20.6453 9.39732 20.6964 9.29884 20.7246 9.19289C20.7528 9.08693 20.7575 8.97608 20.7382 8.86814C20.7269 8.80442 19.5641 2.72956 13.2499 2.279V1.5C13.2499 1.40151 13.2305 1.30398 13.1928 1.21299C13.1552 1.12199 13.0999 1.03931 13.0303 0.96967C12.9606 0.900026 12.8779 0.844781 12.7869 0.80709C12.696 0.769399 12.5984 0.75 12.4999 0.75C12.4014 0.75 12.3039 0.769399 12.2129 0.80709C12.1219 0.844781 12.0393 0.900026 11.9696 0.96967C11.9 1.03931 11.8447 1.12199 11.807 1.21299C11.7693 1.30398 11.7499 1.40151 11.7499 1.5V2.279C5.43573 2.72956 4.27294 8.80442 4.26166 8.86814C4.2424 8.97608 4.24705 9.08693 4.27526 9.19289C4.30347 9.29884 4.35457 9.39732 4.42496 9.48139C4.49534 9.56546 4.5833 9.63308 4.68264 9.67949C4.78198 9.72589 4.89029 9.74995 4.99994 9.74998H11.7499V15.25H7.49994C7.30102 15.25 7.11026 15.329 6.96961 15.4697C6.82895 15.6103 6.74994 15.8011 6.74994 16C6.74994 16.1989 6.82895 16.3897 6.96961 16.5303C7.11026 16.671 7.30102 16.75 7.49994 16.75H11.7499V23.5C11.7499 23.5985 11.7693 23.696 11.807 23.787C11.8447 23.878 11.9 23.9607 11.9696 24.0303C12.0393 24.1 12.1219 24.1552 12.2129 24.1929C12.3039 24.2306 12.4014 24.25 12.4999 24.25C12.5984 24.25 12.696 24.2306 12.7869 24.1929C12.8779 24.1552 12.9606 24.1 13.0303 24.0303C13.0999 23.9607 13.1552 23.878 13.1928 23.787C13.2305 23.696 13.2499 23.5985 13.2499 23.5V16.75H17.4999Z" fill="black"/>
<path d="M22.1973 12.7763C22.0054 12.7241 21.8006 12.7502 21.6279 12.8489C21.4553 12.9476 21.3288 13.1108 21.2764 13.3027L19.9273 18.2499H15.5C15.3294 18.2499 15.1638 18.3081 15.0307 18.4149C14.8975 18.5217 14.8048 18.6707 14.7678 18.8373L13.7678 23.3373C13.7247 23.5315 13.7605 23.7349 13.8673 23.9027C13.9741 24.0705 14.1432 24.189 14.3374 24.2321C14.5316 24.2752 14.735 24.2394 14.9028 24.1326C15.0706 24.0258 15.1891 23.8567 15.2322 23.6625L16.1016 19.7499H19.8984L20.7679 23.6625C20.811 23.8567 20.9295 24.0258 21.0973 24.1326C21.2651 24.2394 21.4685 24.2752 21.6626 24.2321C21.8568 24.189 22.0259 24.0705 22.1327 23.9027C22.2396 23.7349 22.2753 23.5315 22.2322 23.3373L21.2724 19.0184L22.7237 13.6972C22.7759 13.5053 22.7499 13.3004 22.6512 13.1278C22.5524 12.9551 22.3892 12.8286 22.1973 12.7763Z" fill="black"/>
<path d="M10.2322 18.8372C10.1952 18.6706 10.1025 18.5216 9.9694 18.4148C9.83628 18.308 9.67071 18.2498 9.50004 18.2498H5.0728L3.72368 13.3025C3.67136 13.1106 3.54494 12.9473 3.37224 12.8486C3.19954 12.7499 2.9947 12.7238 2.80278 12.7762C2.61086 12.8285 2.44758 12.9549 2.34887 13.1276C2.25015 13.3003 2.22409 13.5051 2.27641 13.6971L3.72764 19.0182L2.76786 23.3372C2.74651 23.4334 2.74431 23.5328 2.76137 23.6298C2.77844 23.7268 2.81445 23.8195 2.86734 23.9026C2.92023 23.9856 2.98897 24.0575 3.06963 24.114C3.15029 24.1705 3.24129 24.2106 3.33745 24.232C3.4336 24.2533 3.53301 24.2555 3.63002 24.2385C3.72702 24.2214 3.81971 24.1854 3.9028 24.1325C3.98589 24.0796 4.05774 24.0109 4.11427 23.9302C4.17079 23.8496 4.21087 23.7585 4.23222 23.6624L5.10172 19.7498H8.89851L9.76786 23.6624C9.81099 23.8566 9.92948 24.0257 10.0973 24.1325C10.2651 24.2393 10.4685 24.2751 10.6626 24.232C10.8568 24.1889 11.0259 24.0704 11.1327 23.9026C11.2396 23.7348 11.2753 23.5314 11.2322 23.3372L10.2322 18.8372Z" fill="black"/>
</svg>
