<svg width="24" height="24" viewBox="0 0 24 24" fill="none" xmlns="http://www.w3.org/2000/svg">
<g clip-path="url(#clip0_904_6737)">
<path d="M13.3563 0.09375C12.9906 0.09375 12.6953 0.389063 12.6953 0.754688V10.6406C12.6953 11.0063 12.9906 11.3016 13.3563 11.3016H23.2422C23.6078 11.3016 23.9031 11.0063 23.9031 10.6406C23.9078 4.82813 19.1734 0.09375 13.3563 0.09375ZM14.0219 9.97969V1.43906C18.5828 1.7625 22.2391 5.41875 22.5625 9.97969H14.0219Z" fill="black"/>
<path d="M20.5313 12.6938H11.3063V3.4688C11.3063 3.10317 11.0109 2.80786 10.6453 2.80786C4.82813 2.80786 0.09375 7.54224 0.09375 13.3547C0.09375 19.1672 4.82813 23.9063 10.6453 23.9063C16.4625 23.9063 21.1969 19.1719 21.1969 13.3547C21.1922 12.9938 20.8969 12.6938 20.5313 12.6938ZM10.6453 22.5844C5.55938 22.5844 1.42031 18.4454 1.42031 13.3594C1.42031 8.4938 5.20313 4.49536 9.98438 4.15786V13.3594C9.98438 13.725 10.2797 14.0204 10.6453 14.0204H19.8469C19.5047 18.7969 15.5063 22.5844 10.6453 22.5844Z" fill="black"/>
</g>
<defs>
<clipPath id="clip0_904_6737">
<rect width="24" height="24" fill="white"/>
</clipPath>
</defs>
</svg>
