<svg width="24" height="24" viewBox="0 0 24 24" fill="none" xmlns="http://www.w3.org/2000/svg">
<path fill-rule="evenodd" clip-rule="evenodd" d="M9 6C9 4.34315 10.3431 3 12 3C13.6569 3 15 4.34315 15 6C15 7.65685 13.6569 9 12 9C10.3431 9 9 7.65685 9 6ZM12 1C9.23858 1 7 3.23858 7 6C7 8.76142 9.23858 11 12 11C14.7614 11 17 8.76142 17 6C17 3.23858 14.7614 1 12 1ZM10 13C6.13401 13 3 16.134 3 20C3 21.6569 4.34315 23 6 23H18C19.6569 23 21 21.6569 21 20C21 16.134 17.866 13 14 13H10ZM5 20C5 17.2386 7.23858 15 10 15H14C16.7614 15 19 17.2386 19 20C19 20.5523 18.5523 21 18 21H6C5.44772 21 5 20.5523 5 20Z" fill="black"/>
</svg>
