<svg width="12" height="12" viewBox="0 0 12 12" fill="none" xmlns="http://www.w3.org/2000/svg">
<path d="M11.3438 6.26172C11.3438 6.48047 11.332 6.66406 11.3086 6.8125C11.2852 6.96094 11.25 7.08203 11.2031 7.17578C11.1562 7.26172 11.1016 7.32422 11.0391 7.36328C10.9766 7.40234 10.9102 7.42188 10.8398 7.42188H7.19531V11.3945C7.19531 11.4727 7.17578 11.543 7.13672 11.6055C7.09766 11.6602 7.03125 11.7109 6.9375 11.7578C6.84375 11.7969 6.71875 11.8281 6.5625 11.8516C6.40625 11.875 6.21094 11.8867 5.97656 11.8867C5.74219 11.8867 5.54688 11.875 5.39062 11.8516C5.23438 11.8281 5.10938 11.7969 5.01562 11.7578C4.92188 11.7109 4.85156 11.6602 4.80469 11.6055C4.76562 11.543 4.74609 11.4727 4.74609 11.3945V7.42188H1.11328C1.04297 7.42188 0.976562 7.40234 0.914062 7.36328C0.859375 7.32422 0.808594 7.26172 0.761719 7.17578C0.714844 7.08203 0.675781 6.96094 0.644531 6.8125C0.621094 6.66406 0.609375 6.48047 0.609375 6.26172C0.609375 6.05078 0.621094 5.87109 0.644531 5.72266C0.667969 5.56641 0.699219 5.44531 0.738281 5.35938C0.785156 5.26562 0.835938 5.19922 0.890625 5.16016C0.945312 5.12109 1.00781 5.10156 1.07812 5.10156H4.74609V1.14062C4.74609 1.0625 4.76562 0.992188 4.80469 0.929688C4.85156 0.859375 4.92188 0.804688 5.01562 0.765625C5.10938 0.71875 5.23438 0.683594 5.39062 0.660156C5.54688 0.636719 5.74219 0.625 5.97656 0.625C6.21094 0.625 6.40625 0.636719 6.5625 0.660156C6.71875 0.683594 6.84375 0.71875 6.9375 0.765625C7.03125 0.804688 7.09766 0.859375 7.13672 0.929688C7.17578 0.992188 7.19531 1.0625 7.19531 1.14062V5.10156H10.875C10.9375 5.10156 10.9961 5.12109 11.0508 5.16016C11.1133 5.19922 11.1641 5.26562 11.2031 5.35938C11.25 5.44531 11.2852 5.56641 11.3086 5.72266C11.332 5.87109 11.3438 6.05078 11.3438 6.26172Z" fill="#00A046"/>
</svg>
