<svg width="15" height="15" viewBox="0 0 15 15" fill="none" xmlns="http://www.w3.org/2000/svg">
<g clip-path="url(#clip0_362_1426)">
<path d="M1.9834 0C3.0791 0 3.9668 0.887695 3.9668 1.9834C3.9668 3.0791 3.0791 3.9668 1.9834 3.9668C0.887695 3.9668 0 3.0791 0 1.9834C0 0.887695 0.887695 0 1.9834 0Z" fill="black"/>
<path d="M7.5 0C8.5957 0 9.4834 0.887695 9.4834 1.9834C9.4834 3.0791 8.5957 3.9668 7.5 3.9668C6.4043 3.9668 5.5166 3.0791 5.5166 1.9834C5.5166 0.887695 6.4043 0 7.5 0Z" fill="black"/>
<path d="M13.0166 0C14.1123 0 15 0.887695 15 1.9834C15 3.0791 14.1123 3.9668 13.0166 3.9668C11.9209 3.9668 11.0332 3.0791 11.0332 1.9834C11.0303 0.887695 11.9209 0 13.0166 0Z" fill="black"/>
<path d="M1.9834 5.5166C3.0791 5.5166 3.9668 6.4043 3.9668 7.5C3.9668 8.5957 3.0791 9.4834 1.9834 9.4834C0.887695 9.4834 0 8.5957 0 7.5C0 6.4043 0.887695 5.5166 1.9834 5.5166Z" fill="black"/>
<path d="M7.5 5.5166C8.5957 5.5166 9.4834 6.4043 9.4834 7.5C9.4834 8.5957 8.5957 9.4834 7.5 9.4834C6.4043 9.4834 5.5166 8.5957 5.5166 7.5C5.5166 6.4043 6.4043 5.5166 7.5 5.5166Z" fill="black"/>
<path d="M13.0166 5.5166C14.1123 5.5166 15 6.4043 15 7.5C15 8.5957 14.1123 9.4834 13.0166 9.4834C11.9209 9.4834 11.0332 8.5957 11.0332 7.5C11.0303 6.4043 11.9209 5.5166 13.0166 5.5166Z" fill="black"/>
<path d="M1.9834 11.0303C3.0791 11.0303 3.9668 11.918 3.9668 13.0137C3.9668 14.1094 3.0791 14.9971 1.9834 14.9971C0.887695 15 0 14.1123 0 13.0166C0 11.9209 0.887695 11.0303 1.9834 11.0303Z" fill="black"/>
<path d="M7.5 11.0303C8.5957 11.0303 9.4834 11.918 9.4834 13.0137C9.4834 14.1094 8.5957 14.9971 7.5 14.9971C6.4043 14.9971 5.5166 14.1094 5.5166 13.0137C5.5166 11.9209 6.4043 11.0303 7.5 11.0303Z" fill="black"/>
<path d="M13.0166 11.0303C14.1123 11.0303 15 11.918 15 13.0137C15 14.1094 14.1123 14.9971 13.0166 14.9971C11.9209 14.9971 11.0332 14.1094 11.0332 13.0137C11.0303 11.9209 11.9209 11.0303 13.0166 11.0303Z" fill="black"/>
</g>
<defs>
<clipPath id="clip0_362_1426">
<rect width="15" height="15" fill="white"/>
</clipPath>
</defs>
</svg>
