<svg width="25" height="25" viewBox="0 0 25 25" fill="none" xmlns="http://www.w3.org/2000/svg">
<g clip-path="url(#clip0_839_877)">
<path d="M14.9671 16.554C14.7555 16.554 14.5439 16.7463 14.5439 17.3906C14.5439 18.0349 14.7555 18.2273 14.9671 18.2273C15.1786 18.2273 15.3902 18.0349 15.3902 17.3906C15.3902 16.7463 15.1786 16.554 14.9671 16.554Z" fill="#DE2B2B"/>
<path d="M10.0335 13.3804C9.82191 13.3804 9.61035 13.5727 9.61035 14.217C9.61035 14.8614 9.82191 15.0537 10.0335 15.0537C10.245 15.0537 10.4566 14.8614 10.4566 14.217C10.4566 13.5727 10.245 13.3804 10.0335 13.3804Z" fill="#DE2B2B"/>
<path d="M19.8205 8.86916C17.7009 6.52808 16.4412 4.46723 15.7576 3.15058C15.0173 1.72447 14.7747 0.840146 14.7729 0.833109L14.5525 0L13.7655 0.351042C13.6735 0.392045 11.4991 1.38369 10.2806 3.82046C9.66902 5.04376 9.5467 6.40575 9.55183 7.33284C9.55481 7.87238 9.17254 8.34086 8.64292 8.44676C8.2716 8.52095 7.88962 8.40552 7.62161 8.13751L6.15562 6.67151L5.65131 7.3669C5.59897 7.43909 4.36654 9.13878 4.14217 9.47839C3.04652 11.1369 2.47522 13.069 2.49003 15.0656C2.50987 17.7323 3.55855 20.2306 5.44288 22.1005C7.32711 23.9703 9.83347 25 12.5003 25C18.02 25 22.5107 20.5093 22.5107 14.9896C22.5107 12.9882 21.5302 10.7574 19.8205 8.86916ZM14.967 19.2658C13.9476 19.2658 13.1782 18.5926 13.1782 17.3905C13.1782 16.1981 13.9476 15.5153 14.967 15.5153C15.9864 15.5153 16.7557 16.198 16.7557 17.3905C16.7557 18.5926 15.9863 19.2658 14.967 19.2658ZM13.9861 12.4379H15.6113L11.0144 19.1696H9.38923L13.9861 12.4379ZM8.24486 14.217C8.24486 13.0245 9.01419 12.3418 10.0336 12.3418C11.053 12.3418 11.8223 13.0245 11.8223 14.217C11.8223 15.4191 11.053 16.0923 10.0336 16.0923C9.01419 16.0923 8.24486 15.4191 8.24486 14.217Z" fill="#DE2B2B"/>
</g>
<defs>
<clipPath id="clip0_839_877">
<rect width="25" height="25" fill="white"/>
</clipPath>
</defs>
</svg>
