<svg width="10" height="10" viewBox="0 0 10 10" fill="none" xmlns="http://www.w3.org/2000/svg">
<path fill-rule="evenodd" clip-rule="evenodd" d="M5.95797 3.87204C6.12068 3.70932 6.38451 3.70932 6.54722 3.87204L8.63055 5.95538C8.79326 6.11808 8.79326 6.38192 8.63055 6.54463L6.54722 8.62796C6.38451 8.79067 6.12068 8.79067 5.95797 8.62796C5.79526 8.46525 5.79526 8.20142 5.95797 8.03871L7.74668 6.25L5.95797 4.46129C5.79526 4.29858 5.79526 4.03476 5.95797 3.87204Z" fill="#427CB1"/>
<path fill-rule="evenodd" clip-rule="evenodd" d="M1.66667 1.25C1.89678 1.25 2.08333 1.43655 2.08333 1.66667V4.58333C2.08333 4.91483 2.21503 5.23279 2.44945 5.46721C2.68387 5.70162 3.00181 5.83333 3.33333 5.83333H8.33333C8.56346 5.83333 8.75 6.01988 8.75 6.25C8.75 6.48012 8.56346 6.66667 8.33333 6.66667H3.33333C2.7808 6.66667 2.2509 6.44717 1.8602 6.05646C1.46949 5.66579 1.25 5.13587 1.25 4.58333V1.66667C1.25 1.43655 1.43655 1.25 1.66667 1.25Z" fill="#427CB1"/>
</svg>
