<svg width="190" height="57" viewBox="0 0 190 57" fill="none" xmlns="http://www.w3.org/2000/svg">
<path fill-rule="evenodd" clip-rule="evenodd" d="M28.4955 21.526H32.8477C37.8257 21.526 41.8651 17.1635 41.8651 11.7861C41.8651 6.40859 37.8312 2.05155 32.8532 2.05155H28.501C28.0893 2.05155 27.7546 1.72221 27.7546 1.31728C27.7546 0.912351 28.0893 0.583008 28.501 0.583008H35.4767C41.7718 0.583008 46.876 5.60413 46.876 11.7969C46.876 17.9896 41.7883 22.9945 35.5041 23.0107H35.4822H28.5065C28.0948 23.0107 27.76 22.6814 27.76 22.2764C27.76 21.8715 28.0948 21.5422 28.5065 21.5422L28.4955 21.526ZM3.39728 20.0682V5.7823C3.39728 5.37737 3.73207 5.04803 4.14369 5.04803C4.55532 5.04803 4.89011 5.37737 4.89011 5.7823V20.0736C4.89011 20.4785 4.55532 20.8079 4.14369 20.8079C3.73207 20.8079 3.39728 20.4785 3.39728 20.0736V20.0682ZM4.14918 2.76963C4.56081 2.76963 4.8956 3.09897 4.8956 3.5039C4.8956 3.90883 4.56081 4.23817 4.14918 4.23817C3.73756 4.23817 3.40277 3.90883 3.40277 3.5039C3.40277 3.09897 3.73756 2.76963 4.14918 2.76963Z" fill="#FFED00"/>
<path fill-rule="evenodd" clip-rule="evenodd" d="M51.7002 5.09662H49.944C49.9933 4.087 50.3117 3.29334 50.9099 2.71564C51.5026 2.13794 52.2655 1.84639 53.204 1.84639C53.7803 1.84639 54.2907 1.96517 54.7298 2.20813C55.1689 2.44568 55.5201 2.79122 55.789 3.23935C56.0525 3.68747 56.1842 4.14639 56.1842 4.61611C56.1842 5.17221 56.025 5.76611 55.7067 6.4032C55.3829 7.04028 54.7957 7.79615 53.945 8.6708L52.8802 9.77761H56.2665V11.4135H49.686V10.5659L52.6223 7.62338C53.3303 6.91611 53.8023 6.34921 54.0383 5.92268C54.2743 5.49615 54.3895 5.10742 54.3895 4.76188C54.3895 4.41634 54.2688 4.1032 54.0273 3.87104C53.7803 3.63888 53.4675 3.5201 53.0888 3.5201C52.7101 3.5201 52.3808 3.66587 52.1173 3.94662C51.8594 4.23277 51.7222 4.61611 51.7057 5.10742L51.7002 5.09662ZM49.6805 21.7311H56.261V20.0898H49.6805V21.7311ZM0.746415 21.5314H18.128C23.1059 21.5314 27.1454 17.1689 27.1454 11.7915C27.1454 6.41399 23.1114 2.05155 18.1335 2.05155H0.746415C0.334789 2.05155 0 1.72221 0 1.31728C0 0.912351 0.334789 0.583008 0.746415 0.583008H20.7514C27.0466 0.583008 32.1507 5.60413 32.1507 11.7969C32.1507 17.9896 27.063 22.9945 20.7789 23.0107H20.7569H0.751903C0.340277 23.0107 0.00548835 22.6814 0.00548835 22.2764H0C0 21.8715 0.334789 21.5422 0.746415 21.5422V21.5314Z" fill="black"/>
<path fill-rule="evenodd" clip-rule="evenodd" d="M72.073 1.70063H74.1311V21.8769H72.073V1.70063ZM78.7852 1.70063H80.8434V10.1556H91.2987V1.70063H93.3568V21.8769H91.2987V12.1262H80.8434V21.8769H78.7852V1.70063ZM96.2986 3.66588V1.70063H107.522V3.66588H102.95V21.8769H100.865V3.67128H96.2931L96.2986 3.66588ZM110.519 1.70063H122.258V3.66588H112.577V9.98819H122.176V11.9534H112.577V19.9063H122.176V21.8715H110.524V1.70063H110.519ZM125.804 1.70063H129.893C132.236 1.70063 133.822 1.79781 134.64 2.00297C135.809 2.28912 136.77 2.86682 137.511 3.75227C138.257 4.63232 138.63 5.74452 138.63 7.07809C138.63 8.41166 138.268 9.52927 137.538 10.4039C136.814 11.2732 135.815 11.8617 134.541 12.164C133.608 12.3854 131.869 12.4934 129.322 12.4934H127.857V21.8769H125.798V1.70063H125.804ZM127.862 3.66588V10.5227L131.336 10.5659C132.741 10.5659 133.767 10.4417 134.421 10.188C135.074 9.93419 135.59 9.53467 135.957 8.97316C136.331 8.41166 136.512 7.77997 136.512 7.08349C136.512 6.38701 136.325 5.78772 135.957 5.22621C135.584 4.66471 135.09 4.26518 134.481 4.02762C133.872 3.79006 132.878 3.67128 131.484 3.67128H127.857L127.862 3.66588ZM154.135 12.6877H163.816V10.7225H154.217C154.393 8.41166 155.359 6.57058 157.12 5.21002C158.882 3.84945 160.831 3.16377 162.965 3.16377C166.055 3.16377 168.498 4.32457 170.303 6.64617L171.933 5.44758C171 4.1302 169.749 3.09358 168.174 2.33232C166.599 1.57105 164.853 1.19312 162.938 1.19312C159.793 1.19312 157.164 2.19734 155.051 4.21119C152.933 6.22504 151.874 8.71401 151.874 11.6727C151.874 14.6314 152.872 17.1959 154.876 19.2692C156.879 21.3424 159.574 22.3844 162.96 22.3844C166.791 22.3844 169.782 21.0455 171.933 18.3675L170.303 17.1527C168.388 19.3664 165.99 20.4732 163.108 20.4732C160.902 20.4732 158.954 19.8415 157.241 18.5727C155.534 17.3039 154.497 15.3441 154.129 12.6931L154.135 12.6877ZM175.956 1.70063H180.045C182.389 1.70063 183.975 1.79781 184.793 2.00297C185.962 2.28912 186.922 2.86682 187.663 3.75227C188.409 4.63232 188.783 5.74452 188.783 7.07809C188.783 8.41166 188.42 9.52927 187.69 10.4039C186.966 11.2732 185.967 11.8617 184.694 12.164C183.761 12.3854 182.021 12.4934 179.474 12.4934H178.009V21.8769H175.951V1.70063H175.956ZM178.015 3.66588V10.5227L181.489 10.5659C182.894 10.5659 183.92 10.4417 184.573 10.188C185.226 9.93419 185.742 9.53467 186.11 8.97316C186.483 8.41166 186.664 7.77997 186.664 7.08349C186.664 6.38701 186.478 5.78772 186.11 5.22621C185.737 4.66471 185.243 4.26518 184.633 4.02762C184.024 3.79006 183.031 3.67128 181.637 3.67128H178.009L178.015 3.66588Z" fill="black"/>
<path fill-rule="evenodd" clip-rule="evenodd" d="M140.891 7.80164L140.562 9.00024H150.095L149.766 7.80164H145.584C145.814 7.26714 145.985 6.78122 146.089 6.3493C146.166 6.03075 146.221 5.66362 146.264 5.23709H149.064L147.62 0H143.032L141.588 5.23709H145.013C144.958 5.7446 144.881 6.16573 144.772 6.50587C144.673 6.83521 144.492 7.26174 144.234 7.80164H140.886H140.891Z" fill="#FFED00"/>
<path fill-rule="evenodd" clip-rule="evenodd" d="M1 54.9896L2.4422 45H2.65908L6.89894 53.1931L11.1172 45H11.2798L12.7762 54.9896H11.7678L10.7268 47.8349L7.02909 54.9896H6.758L3.02777 47.783L2.03013 54.9896H1ZM14.8149 45H20.7897V45.9761H15.8667V49.1018H20.7464V50.0779H15.8667V54.0135H20.7464V54.9896H14.8149V45.0104V45ZM22.5898 54.9896V45.0104H27.8164V45.9865H23.6308V49.1848H24.1187C25.4091 49.1848 26.3525 49.2887 26.9381 49.5171C27.5237 49.7352 27.9899 50.0779 28.3261 50.5556C28.6622 51.0332 28.8357 51.5524 28.8357 52.134C28.8357 52.892 28.543 53.567 27.9466 54.1381C27.3501 54.7092 26.526 55 25.4525 55H22.5898V54.9896ZM23.6308 50.1713V54.0135H24.9103C25.6694 54.0135 26.2224 53.9408 26.5694 53.7954C26.9273 53.6501 27.1983 53.432 27.4152 53.1308C27.6213 52.8297 27.7297 52.4974 27.7297 52.134C27.7297 51.6667 27.5779 51.2825 27.2851 50.9605C26.9923 50.6386 26.6236 50.4206 26.1791 50.3271C25.7345 50.2233 25.0838 50.1713 24.2163 50.1713H23.6416H23.6308ZM39.3541 54.9896H38.2155L34.7564 47.2534L31.2322 54.9896H30.0936L34.6371 45H34.8648L39.3433 54.9896H39.3541ZM40.959 45H42V54.9896H40.959V45.0104V45Z" fill="black"/>
<path fill-rule="evenodd" clip-rule="evenodd" d="M63.0537 57H62V54.3171H62.8452L66.9833 44.2764H67.3455L71.7142 54.3171H72.5264V57H71.4727V55.3534H63.0428V57H63.0537ZM64.0306 54.3171H70.4738L67.1699 46.5908L64.0306 54.3171ZM74.0631 44.2764H80.1111V45.3587H75.1278V48.8246H80.0672V49.907H75.1278V54.271H80.0672V55.3534H74.0631V44.2764ZM81.9332 44.2764H83.0089V48.4331L87.2458 44.2764H88.6618L83.5797 49.2392L89.0679 55.3419H87.6629L83.0199 50.1718V55.3419H81.9442V44.2648L81.9332 44.2764ZM95.6538 44C97.2563 44 98.5845 44.5642 99.6602 45.6811C100.736 46.7981 101.274 48.1798 101.274 49.8149C101.274 51.45 100.736 52.8087 99.6602 53.9371C98.5845 55.0655 97.2783 55.6298 95.7306 55.6298C94.1829 55.6298 92.8438 55.0655 91.7681 53.9486C90.6924 52.8202 90.1546 51.4615 90.1546 49.8725C90.1546 48.8131 90.3961 47.8229 90.89 46.9132C91.3839 46.0035 92.0535 45.2896 92.8987 44.783C93.7439 44.2648 94.6659 44.0115 95.6428 44.0115L95.6538 44ZM95.6977 45.0824C94.9184 45.0824 94.1829 45.3012 93.4804 45.7272C92.7779 46.1532 92.2401 46.729 91.845 47.4544C91.4498 48.1798 91.2522 48.9858 91.2522 49.8725C91.2522 51.1851 91.6913 52.302 92.5584 53.2002C93.4256 54.1098 94.4793 54.5589 95.6977 54.5589C96.5209 54.5589 97.2783 54.3516 97.9698 53.9371C98.6723 53.5226 99.2102 52.9469 99.6053 52.233C99.9895 51.5075 100.187 50.713 100.187 49.8264C100.187 48.9398 99.9895 48.1568 99.6053 47.4429C99.2211 46.729 98.6613 46.1647 97.9588 45.7387C97.2454 45.3127 96.499 45.0939 95.6977 45.0939V45.0824ZM103.392 44.2764H105.5C106.707 44.2764 107.519 44.3339 107.947 44.4376C108.551 44.5988 109.045 44.9097 109.429 45.4048C109.813 45.8884 110 46.4987 110 47.2356C110 47.9725 109.813 48.5828 109.44 49.0664C109.067 49.55 108.551 49.8609 107.903 50.0337C107.421 50.1488 106.531 50.2179 105.214 50.2179H104.457V55.3649H103.403V44.2879L103.392 44.2764ZM104.446 45.3587V49.124L106.235 49.147C106.96 49.147 107.486 49.0779 107.827 48.9398C108.167 48.8016 108.43 48.5828 108.617 48.2719C108.804 47.961 108.902 47.6156 108.902 47.2356C108.902 46.8556 108.804 46.5217 108.617 46.2108C108.43 45.8999 108.167 45.6811 107.86 45.5545C107.541 45.4278 107.036 45.3587 106.323 45.3587H104.457H104.446Z" fill="black"/>
<path fill-rule="evenodd" clip-rule="evenodd" d="M130.059 57H129V54.3859H129.849L134.008 44.6028H134.372L138.762 54.3859H139.579V57H138.52V55.3957H130.048V57H130.059ZM131.041 54.3859H137.516L134.196 46.8579L131.041 54.3859ZM149.473 55.3957H148.37V47.1047L141.365 55.3957H141.123V44.6028H142.182V53.0172L149.23 44.6028H149.473V55.3957ZM152.264 45.6574C153.014 44.7823 153.929 44.3336 155.033 44.3336C155.904 44.3336 156.621 44.5916 157.195 45.0965C157.768 45.6013 158.044 46.2633 158.044 47.0823C158.044 48.2266 157.514 49.0456 156.444 49.5505C157.845 49.988 158.54 50.9417 158.54 52.4114C158.54 53.3874 158.231 54.1728 157.603 54.7786C156.974 55.3732 156.114 55.6761 155.033 55.6761C154.271 55.6761 153.61 55.5191 153.047 55.1937C152.484 54.8684 151.955 54.3074 151.459 53.5108L152.275 53.0172C152.771 53.7464 153.224 54.2177 153.654 54.4308C154.084 54.644 154.525 54.745 154.988 54.745C155.661 54.745 156.235 54.543 156.709 54.1503C157.184 53.7577 157.415 53.1743 157.415 52.4002C157.415 51.9963 157.338 51.6373 157.173 51.3456C157.007 51.0426 156.786 50.807 156.489 50.6163C156.191 50.4256 155.915 50.3134 155.65 50.2685C155.386 50.2236 154.955 50.2012 154.338 50.2012H154.161V49.2588H154.514C156.091 49.2588 156.875 48.6081 156.875 47.3179C156.875 46.712 156.698 46.2408 156.334 45.8818C155.97 45.534 155.518 45.3545 154.966 45.3545C154.249 45.3545 153.588 45.6799 152.959 46.3418L152.231 45.6911L152.264 45.6574ZM164.971 44.6028L169.924 55.3957H168.788L167.133 51.8504H162.533L160.89 55.3957H159.71L164.718 44.6028H164.982H164.971ZM164.839 46.8691L163.019 50.7958H166.659L164.839 46.8691ZM179.918 55.3957H178.815V47.1047L171.81 55.3957H171.568V44.6028H172.627V53.0172L179.675 44.6028H179.918V55.3957ZM173.2 42H174.149C174.314 42.258 174.535 42.4488 174.811 42.5722C175.086 42.6956 175.417 42.7629 175.792 42.7629C176.167 42.7629 176.487 42.7068 176.73 42.5946C176.962 42.4824 177.193 42.2805 177.403 42H178.318C178.208 42.4375 177.943 42.8078 177.513 43.0995C177.072 43.3912 176.498 43.5482 175.792 43.5482C175.086 43.5482 174.513 43.4024 174.061 43.1107C173.608 42.819 173.333 42.4488 173.211 42H173.2ZM182.477 44.6028H183.536V49.1242H188.941V44.6028H190V55.3957H188.941V50.1788H183.536V55.3957H182.477V44.6028Z" fill="black"/>
<circle cx="53.5" cy="50.5" r="1.5" fill="#FEED00"/>
<circle cx="121.5" cy="50.5" r="1.5" fill="#FEED00"/>
</svg>
