<svg width="18" height="12" viewBox="0 0 18 12" fill="none" xmlns="http://www.w3.org/2000/svg">
<path fill-rule="evenodd" clip-rule="evenodd" d="M15.3775 1.9764C14.7039 2.6754 14.0446 3.35951 14.0535 3.35951C16.2304 3.35951 18 5.1407 18 7.33797C18 9.53523 16.2353 11.3164 14.0585 11.3164C12.1404 11.3164 10.1419 9.6206 9 8.46022C7.85562 9.61895 5.85709 11.3164 3.94149 11.3164C1.76467 11.3164 0 9.53523 0 7.33797C0 5.1407 1.76467 3.35951 3.93652 3.35951C3.94733 3.35951 3.19708 2.581 2.4795 1.83639C1.82183 1.15395 1.19162 0.5 1.19994 0.5C1.6577 0.508288 3.35603 0.5 3.35603 0.5L8.99502 6.40469L14.634 0.5C14.634 0.5 16.3324 0.508288 16.7901 0.5C16.8003 0.5 16.0811 1.24632 15.3775 1.9764ZM2.27494 9.12551C2.74927 9.5996 3.39259 9.86594 4.06339 9.86594C5.92924 9.86594 7.91947 7.37941 7.91947 7.37941C7.91947 7.37941 5.84631 4.80999 4.06339 4.80999C3.39259 4.80999 2.74927 5.07633 2.27494 5.55042C1.80061 6.02451 1.53414 6.6675 1.53414 7.33797C1.53414 8.00843 1.80061 8.65142 2.27494 9.12551ZM10.0756 7.37941C10.0756 7.37941 12.0658 9.86594 13.9316 9.86594C14.6024 9.86594 15.2458 9.5996 15.7201 9.12551C16.1944 8.65142 16.4609 8.00843 16.4609 7.33797C16.4609 6.6675 16.1944 6.02451 15.7201 5.55042C15.2458 5.07633 14.6024 4.80999 13.9316 4.80999C12.1487 4.80999 10.0756 7.37941 10.0756 7.37941Z" fill="#959595"/>
<path d="M8.9933 9.69604L9.88049 10.5828L8.96281 11.5L8.07562 10.6133L8.9933 9.69604Z" fill="#959595"/>
</svg>
