<svg width="25" height="25" viewBox="0 0 25 25" fill="none" xmlns="http://www.w3.org/2000/svg">
<path d="M5.2085 10.4166V13.0208H19.7918V10.4166C19.7918 8.98125 20.9596 7.8125 22.396 7.8125H22.9168V6.25C22.9168 5.38853 22.2158 4.6875 21.3543 4.6875H3.646C2.78452 4.6875 2.0835 5.38853 2.0835 6.25V7.8125H2.60435C4.04077 7.8125 5.2085 8.98125 5.2085 10.4166Z" fill="black"/>
<path d="M23.4375 8.85425H22.3958C21.5344 8.85425 20.8333 9.55527 20.8333 10.4167V13.5417C20.8333 13.8292 20.6 14.0626 20.3125 14.0626H4.6875C4.4 14.0626 4.16665 13.8292 4.16665 13.5417V10.4167C4.16665 9.55527 3.46563 8.85425 2.60415 8.85425H1.5625C0.701025 8.85425 0 9.55527 0 10.4167V16.6667C0 17.5282 0.701025 18.2292 1.5625 18.2292H2.08335V19.7917C2.08335 20.0792 2.3167 20.3126 2.6042 20.3126H5.7292C6.0167 20.3126 6.25005 20.0792 6.25005 19.7917V18.2292H18.75V19.7917C18.75 20.0792 18.9834 20.3126 19.2709 20.3126H22.3959C22.6834 20.3126 22.9167 20.0792 22.9167 19.7917V18.2292H23.4375C24.299 18.2292 25 17.5282 25 16.6667V10.4167C25 9.55532 24.299 8.85425 23.4375 8.85425Z" fill="black"/>
</svg>
