<svg width="25" height="25" viewBox="0 0 25 25" fill="none" xmlns="http://www.w3.org/2000/svg">
<g clip-path="url(#clip0_839_882)">
<path d="M24.4889 21.9773L22.859 20.3474C22.5406 20.029 22.0247 20.029 21.7063 20.3474C21.3879 20.6656 21.3879 21.182 21.7063 21.5002L21.9451 21.7391H6.31591L6.55478 21.5002C6.87319 21.1821 6.87319 20.6657 6.55478 20.3474C6.23637 20.029 5.72045 20.029 5.402 20.3474L3.77212 21.9773C3.61221 22.1369 3.53271 22.3548 3.53271 22.5543C3.53271 22.7581 3.61641 22.9758 3.77212 23.1312L5.402 24.7611C5.72045 25.0796 6.23627 25.0796 6.55478 24.7611C6.87319 24.4429 6.87319 23.9265 6.55478 23.6083L6.31591 23.3695H21.9451L21.7063 23.6083C21.3879 23.9265 21.3879 24.4429 21.7063 24.7611C22.0247 25.0796 22.5405 25.0796 22.859 24.7611L24.4889 23.1312C24.6486 22.972 24.7283 22.7542 24.7283 22.5543C24.7283 22.3451 24.6447 22.1327 24.4889 21.9773Z" fill="black"/>
<path d="M3.77175 17.0866L3.53288 17.3254V2.78314L3.77175 3.022C4.0902 3.34046 4.60602 3.34046 4.92453 3.022C5.24298 2.70355 5.24298 2.18773 4.92453 1.86922L3.29406 0.238806C2.97565 -0.0796019 2.45974 -0.0796019 2.14128 0.238806L0.510864 1.86922C0.192407 2.18768 0.192407 2.7035 0.510864 3.022C0.829271 3.34041 1.34519 3.34041 1.66364 3.022L1.90246 2.78314V17.3254L1.6636 17.0865C1.34519 16.7681 0.829271 16.7681 0.510815 17.0865C0.192359 17.405 0.192359 17.9208 0.510815 18.2393L2.14123 19.8697C2.45969 20.1882 2.97551 20.1882 3.29401 19.8697L4.92443 18.2393C5.24289 17.9209 5.24289 17.405 4.92448 17.0866C4.60607 16.7682 4.09015 16.7682 3.77175 17.0866Z" fill="black"/>
<path d="M20.6522 6.52172H24.7283V0.815233C24.7283 0.364892 24.3631 0 23.9131 0H12.7718V6.52172H16.8478C17.2979 6.52172 17.6631 6.88661 17.6631 7.33695C17.6631 7.78729 17.2979 8.15218 16.8478 8.15218H12.7718V10.5978C12.7718 11.0482 12.4066 11.4131 11.9565 11.4131C11.5065 11.4131 11.1413 11.0482 11.1413 10.5978V0H7.60869C7.15864 0 6.79346 0.364892 6.79346 0.815233V17.663C6.79346 18.1133 7.15864 18.4782 7.60869 18.4782H11.1413V14.4022C11.1413 13.9518 11.5065 13.5869 11.9565 13.5869C12.4066 13.5869 12.7718 13.9518 12.7718 14.4022V18.4782H23.9131C24.3631 18.4782 24.7283 18.1133 24.7283 17.663V8.15218H20.6522C20.2022 8.15218 19.837 7.78729 19.837 7.33695C19.837 6.88661 20.2021 6.52172 20.6522 6.52172Z" fill="black"/>
</g>
<defs>
<clipPath id="clip0_839_882">
<rect width="25" height="25" fill="white"/>
</clipPath>
</defs>
</svg>
