<svg width="17" height="17" viewBox="0 0 17 17" fill="none" xmlns="http://www.w3.org/2000/svg">
<path d="M13.1212 14.3475C11.7394 15.2415 10.1363 15.7149 8.5 15.7122C4.26375 15.7122 0.739301 12.603 0 8.5C0.337855 6.63341 1.25833 4.92827 2.62409 3.63896L0.165773 1.13392L1.27747 0L16.8327 15.8669L15.721 17L13.1204 14.3475H13.1212ZM3.735 4.77369C2.6673 5.76384 1.92353 7.0646 1.60431 8.5C1.84966 9.59502 2.34224 10.6165 3.04284 11.4831C3.74344 12.3498 4.63271 13.0376 5.63986 13.4919C6.64702 13.9462 7.74424 14.1544 8.84419 14.1C9.94414 14.0455 11.0164 13.73 11.9757 13.1783L10.3824 11.5532C9.70417 11.989 8.90084 12.1767 8.10422 12.0856C7.30759 11.9945 6.56496 11.63 5.99814 11.0519C5.43131 10.4737 5.07394 9.71624 4.98464 8.90369C4.89533 8.09115 5.0794 7.27177 5.50665 6.57995L3.735 4.77369ZM9.21809 10.3656L6.671 7.76756C6.5312 8.13052 6.4983 8.52721 6.57633 8.90897C6.65436 9.29073 6.83992 9.64096 7.11027 9.91671C7.38061 10.1925 7.72398 10.3817 8.09826 10.4613C8.47254 10.5409 8.86145 10.5073 9.2173 10.3648L9.21809 10.3656ZM15.4193 12.1798L14.295 11.0339C14.8202 10.2704 15.1941 9.40969 15.3957 8.5C15.1822 7.54616 14.7807 6.64658 14.2158 5.85592C13.6508 5.06526 12.9341 4.40004 12.1092 3.90069C11.2843 3.40135 10.3685 3.07831 9.41744 2.95121C8.46635 2.82411 7.49987 2.89561 6.57672 3.16136L5.33695 1.89681C6.31667 1.50415 7.38437 1.28778 8.5 1.28778C12.7363 1.28778 16.2607 4.39705 17 8.5C16.7593 9.83482 16.2182 11.0945 15.4193 12.1798ZM8.28237 4.9003C8.78245 4.86878 9.28339 4.94603 9.75198 5.12694C10.2206 5.30785 10.6461 5.58828 11.0004 5.94964C11.3547 6.311 11.6296 6.74505 11.807 7.223C11.9843 7.70096 12.0601 8.2119 12.0292 8.72198L8.28159 4.9003H8.28237Z" fill="#909090"/>
</svg>
