<svg width="25" height="25" viewBox="0 0 25 25" fill="none" xmlns="http://www.w3.org/2000/svg">
<path d="M19.271 11.4584C21.2426 11.4584 22.9168 13.0602 22.9168 15.1042V18.2292H21.3543V19.2709H20.3127V18.2292H4.68766V19.2709H3.646V18.2292H2.0835V15.1042C2.0835 13.1327 3.70104 11.4584 5.72933 11.4584H19.271ZM18.2293 5.72925C19.6297 5.72925 20.8339 6.85508 20.8335 8.33342L20.8339 10.8218C20.3602 10.5621 19.8303 10.4167 19.271 10.4167L18.2293 10.4162C18.2293 9.52423 17.499 8.85425 16.6668 8.85425H13.5418C13.1417 8.85425 12.7766 9.00467 12.5002 9.25206C12.2241 9.00486 11.8589 8.85425 11.4585 8.85425H8.3335C7.47073 8.85425 6.77128 9.55352 6.771 10.4162L5.72933 10.4167C5.17019 10.4167 4.64044 10.562 4.16683 10.8215V8.33342C4.16683 6.93302 5.29004 5.72925 6.771 5.72925H18.2293ZM11.4585 9.89565C11.7411 9.89565 11.9793 10.1561 11.9793 10.4167L7.81266 10.4162C7.81266 10.0976 8.06639 9.89592 8.3335 9.89592L11.4585 9.89565ZM16.6668 9.89942C16.9616 9.89565 17.1874 10.1494 17.1877 10.4162H13.021C13.021 10.093 13.2747 9.89592 13.5418 9.89592L16.6668 9.89942Z" fill="black"/>
</svg>
