<svg width="40" height="40" viewBox="0 0 40 40" fill="none" xmlns="http://www.w3.org/2000/svg">
<path d="M14.3424 19.2853H11.4252C11.2358 19.2853 11.0541 19.3605 10.9201 19.4945C10.7862 19.6284 10.7109 19.8101 10.7109 19.9996C10.7109 20.189 10.7862 20.3707 10.9201 20.5046C11.0541 20.6386 11.2358 20.7138 11.4252 20.7138H14.3424C14.7805 20.7142 15.2008 20.5406 15.511 20.2312C15.8212 19.9219 15.9959 19.502 15.9967 19.0638V13.2296C15.9963 12.7919 15.8224 12.3723 15.513 12.0627C15.2037 11.7532 14.7843 11.5789 14.3467 11.5781H11.4252C11.2358 11.5781 11.0541 11.6534 10.9201 11.7873C10.7862 11.9213 10.7109 12.103 10.7109 12.2924C10.7109 12.4819 10.7862 12.6635 10.9201 12.7975C11.0541 12.9314 11.2358 13.0067 11.4252 13.0067H14.3424C14.4012 13.0071 14.4575 13.0307 14.499 13.0725C14.5405 13.1142 14.5638 13.1707 14.5638 13.2296V15.4281H11.4252C11.2358 15.4281 11.0541 15.5034 10.9201 15.6373C10.7862 15.7713 10.7109 15.953 10.7109 16.1424C10.7109 16.3319 10.7862 16.5135 10.9201 16.6475C11.0541 16.7814 11.2358 16.8567 11.4252 16.8567H14.5681V19.0596C14.5687 19.0894 14.5632 19.119 14.5521 19.1466C14.5409 19.1743 14.5243 19.1994 14.5033 19.2205C14.4822 19.2415 14.4571 19.2581 14.4294 19.2693C14.4018 19.2804 14.3722 19.2859 14.3424 19.2853Z" fill="black"/>
<path d="M22.736 19.0638V17.0824C22.7364 16.6443 22.5628 16.2239 22.2534 15.9138C21.944 15.6036 21.5241 15.4289 21.086 15.4281H18.8817V13.2296C18.8817 13.1704 18.9052 13.1138 18.947 13.072C18.9888 13.0302 19.0454 13.0067 19.1046 13.0067H22.0217C22.2111 13.0067 22.3928 12.9314 22.5268 12.7975C22.6607 12.6635 22.736 12.4819 22.736 12.2924C22.736 12.103 22.6607 11.9213 22.5268 11.7873C22.3928 11.6534 22.2111 11.5781 22.0217 11.5781H19.1046C18.6668 11.5789 18.2472 11.7531 17.9377 12.0627C17.6281 12.3722 17.4539 12.7918 17.4531 13.2296V19.0638C17.4543 19.5013 17.6287 19.9206 17.9382 20.2298C18.2477 20.5391 18.667 20.7131 19.1046 20.7138H21.086C21.5234 20.7131 21.9426 20.539 22.2519 20.2297C22.5611 19.9205 22.7352 19.5012 22.736 19.0638ZM21.3074 19.0638C21.3074 19.1226 21.2841 19.1789 21.2426 19.2204C21.201 19.2619 21.1447 19.2853 21.086 19.2853H19.1046C19.0754 19.2855 19.0464 19.2799 19.0194 19.2688C18.9923 19.2578 18.9678 19.2415 18.9471 19.2209C18.9263 19.2003 18.9099 19.1759 18.8987 19.1489C18.8875 19.1219 18.8817 19.093 18.8817 19.0638V16.8567H21.086C21.1447 16.8567 21.201 16.88 21.2426 16.9216C21.2841 16.9631 21.3074 17.0194 21.3074 17.0781V19.0638Z" fill="black"/>
<path d="M26.2996 20.7138H27.3753C27.9332 20.7138 28.4682 20.4923 28.8628 20.098C29.2573 19.7037 29.4792 19.1688 29.4796 18.611V13.681C29.4788 13.1233 29.2569 12.5886 28.8623 12.1944C28.4678 11.8001 27.933 11.5785 27.3753 11.5781H26.2996C25.742 11.5789 25.2074 11.8006 24.813 12.1948C24.4186 12.5889 24.1964 13.1234 24.1953 13.681V18.611C24.1961 19.1687 24.4181 19.7034 24.8126 20.0976C25.2071 20.4918 25.7419 20.7135 26.2996 20.7138ZM25.6239 13.681C25.6243 13.502 25.6956 13.3305 25.8223 13.2041C25.949 13.0777 26.1206 13.0067 26.2996 13.0067H27.3753C27.5543 13.0067 27.7259 13.0777 27.8526 13.2041C27.9793 13.3305 28.0506 13.502 28.051 13.681V18.611C28.0506 18.7899 27.9793 18.9615 27.8526 19.0879C27.7259 19.2143 27.5543 19.2853 27.3753 19.2853H26.2996C26.1206 19.2853 25.949 19.2143 25.8223 19.0879C25.6956 18.9615 25.6243 18.7899 25.6239 18.611V13.681Z" fill="black"/>
<path d="M31.631 12.6057C32.0143 12.606 32.389 12.4926 32.7078 12.2799C33.0266 12.0671 33.2751 11.7646 33.4219 11.4106C33.5687 11.0565 33.6071 10.6669 33.5324 10.291C33.4577 9.91512 33.2732 9.56982 33.0022 9.29882C32.7312 9.02782 32.3859 8.8433 32.01 8.7686C31.6341 8.6939 31.2445 8.73238 30.8905 8.87918C30.5365 9.02597 30.2339 9.27448 30.0212 9.59326C29.8084 9.91204 29.695 10.2868 29.6953 10.67C29.6961 11.1832 29.9003 11.6751 30.2631 12.0379C30.626 12.4008 31.1179 12.605 31.631 12.6057ZM31.631 10.1614C31.7317 10.1612 31.8301 10.1907 31.914 10.2465C31.9978 10.3022 32.0632 10.3815 32.1019 10.4744C32.1406 10.5673 32.1509 10.6696 32.1314 10.7684C32.112 10.8671 32.0636 10.9579 31.9926 11.0291C31.9215 11.1004 31.8309 11.149 31.7322 11.1687C31.6335 11.1884 31.5312 11.1785 31.4382 11.14C31.3452 11.1016 31.2656 11.0364 31.2097 10.9527C31.1537 10.869 31.1239 10.7707 31.1239 10.67C31.1237 10.6033 31.1367 10.5372 31.1621 10.4755C31.1875 10.4138 31.2248 10.3577 31.2719 10.3105C31.319 10.2632 31.375 10.2258 31.4366 10.2002C31.4982 10.1746 31.5643 10.1614 31.631 10.1614Z" fill="black"/>
<path d="M18.0606 24.6115C17.9947 24.5433 17.9159 24.4889 17.8288 24.4514C17.7416 24.414 17.6479 24.3943 17.5531 24.3935C17.4582 24.3926 17.3642 24.4107 17.2764 24.4466C17.1886 24.4825 17.1088 24.5356 17.0418 24.6027C16.9747 24.6697 16.9217 24.7495 16.8858 24.8373C16.8498 24.925 16.8318 25.0191 16.8326 25.1139C16.8334 25.2088 16.8531 25.3025 16.8906 25.3897C16.928 25.4768 16.9824 25.5556 17.0506 25.6215L18.2435 26.8129C9.58063 26.5515 3.5692 24.3815 3.5692 22.5572C3.5692 21.8929 4.5692 20.8544 7.36491 19.9286C7.45402 19.8992 7.53646 19.8525 7.60752 19.7912C7.67857 19.7299 7.73686 19.6551 7.77904 19.5713C7.82123 19.4875 7.84648 19.3961 7.85337 19.3025C7.86026 19.2089 7.84865 19.1149 7.8192 19.0258C7.78974 18.9367 7.74303 18.8542 7.68171 18.7832C7.6204 18.7121 7.54569 18.6538 7.46185 18.6117C7.37802 18.5695 7.28669 18.5442 7.19309 18.5373C7.09949 18.5304 7.00545 18.5421 6.91634 18.5715C3.79205 19.6058 2.14062 20.9829 2.14062 22.5572C2.14062 26.1615 10.4678 28.0215 18.2992 28.2458L17.0506 29.4944C16.9165 29.6283 16.8411 29.81 16.8409 29.9996C16.8408 30.1891 16.916 30.371 17.0499 30.5051C17.1838 30.6392 17.3656 30.7146 17.5551 30.7148C17.7447 30.7149 17.9265 30.6397 18.0606 30.5058L20.5035 28.0629C20.6374 27.929 20.7126 27.7473 20.7126 27.5579C20.7126 27.3685 20.6374 27.1869 20.5035 27.0529L18.0606 24.6115Z" fill="black"/>
<path d="M33.0809 18.5711C32.9911 18.5385 32.8957 18.5243 32.8004 18.5293C32.705 18.5342 32.6116 18.5583 32.5256 18.6C32.4397 18.6416 32.363 18.7001 32.3001 18.772C32.2372 18.8438 32.1893 18.9276 32.1593 19.0182C32.1293 19.1089 32.1178 19.2047 32.1254 19.2999C32.1331 19.3951 32.1598 19.4878 32.2039 19.5725C32.248 19.6572 32.3086 19.7322 32.3822 19.793C32.4558 19.8539 32.5409 19.8994 32.6323 19.9268C35.4281 20.8568 36.4281 21.8925 36.4281 22.5568C36.4281 24.2711 31.2252 26.3625 22.8223 26.7754C22.7285 26.7776 22.6361 26.7983 22.5503 26.8363C22.4645 26.8743 22.387 26.9288 22.3223 26.9967C22.1916 27.1339 22.1207 27.3174 22.1252 27.5068C22.1298 27.6963 22.2094 27.8761 22.3465 28.0069C22.4837 28.1376 22.6672 28.2085 22.8566 28.204H22.8909C30.3395 27.8368 37.8566 25.9497 37.8566 22.5568C37.8566 20.9825 36.2052 19.6054 33.0809 18.5711Z" fill="black"/>
</svg>
