<svg width="25" height="25" viewBox="0 0 25 25" fill="none" xmlns="http://www.w3.org/2000/svg">
<path d="M22.6562 5.46875H2.34375C2.13655 5.46875 1.93784 5.55106 1.79132 5.69757C1.64481 5.84409 1.5625 6.0428 1.5625 6.25V7.8125C1.5625 8.0197 1.64481 8.21841 1.79132 8.36493C1.93784 8.51144 2.13655 8.59375 2.34375 8.59375H10.9375V10.1562C10.9375 10.3635 11.0198 10.5622 11.1663 10.7087C11.3128 10.8552 11.5115 10.9375 11.7188 10.9375V13.7422L7.25781 18.1953C7.1107 18.3424 7.02805 18.542 7.02805 18.75C7.02805 18.958 7.1107 19.1576 7.25781 19.3047C7.40492 19.4518 7.60445 19.5344 7.8125 19.5344C8.02055 19.5344 8.22008 19.4518 8.36719 19.3047L11.7188 15.9453V18.75C11.7188 18.9572 11.8011 19.1559 11.9476 19.3024C12.0941 19.4489 12.2928 19.5312 12.5 19.5312C12.7072 19.5312 12.9059 19.4489 13.0524 19.3024C13.1989 19.1559 13.2812 18.9572 13.2812 18.75V15.9453L16.6328 19.3047C16.7054 19.3779 16.7918 19.436 16.887 19.4757C16.9823 19.5154 17.0844 19.5358 17.1875 19.5358C17.2906 19.5358 17.3927 19.5154 17.488 19.4757C17.5832 19.436 17.6696 19.3779 17.7422 19.3047C17.8154 19.2321 17.8735 19.1457 17.9132 19.0505C17.9529 18.9552 17.9733 18.8531 17.9733 18.75C17.9733 18.6469 17.9529 18.5448 17.9132 18.4495C17.8735 18.3543 17.8154 18.2679 17.7422 18.1953L13.2812 13.7422V10.9375C13.4885 10.9375 13.6872 10.8552 13.8337 10.7087C13.9802 10.5622 14.0625 10.3635 14.0625 10.1562V8.59375H22.6562C22.8635 8.59375 23.0622 8.51144 23.2087 8.36493C23.3552 8.21841 23.4375 8.0197 23.4375 7.8125V6.25C23.4375 6.0428 23.3552 5.84409 23.2087 5.69757C23.0622 5.55106 22.8635 5.46875 22.6562 5.46875Z" fill="black"/>
</svg>
