<svg width="24" height="24" viewBox="0 0 24 24" fill="none" xmlns="http://www.w3.org/2000/svg">
<g clip-path="url(#clip0_362_894)">
<path d="M14.4348 10.7889C14.4901 10.7943 14.5453 10.7778 14.5887 10.743C14.6321 10.7082 14.6601 10.6578 14.6669 10.6026C14.6774 10.5252 14.6832 10.4471 14.6842 10.3689C14.6834 9.81016 14.4607 9.27459 14.0652 8.87992C13.6696 8.48525 13.1335 8.26378 12.5748 8.2642C12.4967 8.26368 12.4186 8.2679 12.3411 8.27683C12.3136 8.27984 12.287 8.28823 12.2627 8.30152C12.2385 8.31481 12.2171 8.33275 12.1998 8.3543C12.1825 8.37585 12.1697 8.4006 12.1619 8.42714C12.1542 8.45367 12.1517 8.48147 12.1548 8.50894C12.1578 8.53641 12.1661 8.56303 12.1794 8.58726C12.1927 8.61149 12.2107 8.63287 12.2322 8.65017C12.2538 8.66747 12.2785 8.68036 12.3051 8.68809C12.3316 8.69583 12.3594 8.69826 12.3869 8.69526C12.4492 8.6876 12.5119 8.6839 12.5748 8.6842C13.0213 8.68504 13.4494 8.8628 13.7651 9.17857C14.0809 9.49434 14.2587 9.92238 14.2595 10.3689C14.259 10.4317 14.2553 10.4944 14.2484 10.5568C14.2431 10.6122 14.2596 10.6674 14.2944 10.7108C14.3292 10.7542 14.3796 10.7822 14.4348 10.7889Z" fill="black"/>
<path d="M12.5747 9.10577C12.5455 9.10324 12.5161 9.10681 12.4884 9.11625C12.4606 9.1257 12.4351 9.14081 12.4135 9.16063C12.3919 9.18045 12.3746 9.20454 12.3628 9.23139C12.351 9.25823 12.3449 9.28724 12.3449 9.31656C12.3449 9.34588 12.351 9.37489 12.3628 9.40173C12.3746 9.42857 12.3919 9.45267 12.4135 9.47249C12.4351 9.49231 12.4606 9.50742 12.4884 9.51687C12.5161 9.52631 12.5455 9.52988 12.5747 9.52735C12.6857 9.52672 12.7956 9.54803 12.8983 9.59005C13.0009 9.63206 13.0943 9.69395 13.1729 9.77216C13.2516 9.85037 13.314 9.94336 13.3566 10.0458C13.3991 10.1482 13.4211 10.258 13.4211 10.3689C13.4256 10.4217 13.4498 10.4708 13.4888 10.5066C13.5279 10.5424 13.5789 10.5622 13.6319 10.5622C13.6848 10.5622 13.7358 10.5424 13.7749 10.5066C13.8139 10.4708 13.8381 10.4217 13.8426 10.3689C13.8426 10.2026 13.8098 10.038 13.746 9.88444C13.6823 9.73088 13.5888 9.59142 13.471 9.47406C13.3532 9.3567 13.2134 9.26376 13.0596 9.20056C12.9058 9.13736 12.741 9.10515 12.5747 9.10577Z" fill="black"/>
<path d="M14.0071 12.131C13.9342 12.0537 13.8426 11.9966 13.7411 11.9651C13.6397 11.9335 13.5318 11.9286 13.4279 11.9508C13.324 11.973 13.2276 12.0216 13.1479 12.0918C13.0682 12.1621 13.008 12.2517 12.9729 12.352C12.9187 12.4958 12.8139 12.6149 12.6782 12.687C12.5424 12.7591 12.3851 12.7792 12.2356 12.7436C11.5724 12.5699 10.6835 11.6936 10.524 10.9925C10.4846 10.8419 10.505 10.6818 10.5809 10.5458C10.6568 10.4099 10.7824 10.3086 10.9313 10.2631C11.0322 10.23 11.123 10.1717 11.1949 10.0935C11.2668 10.0154 11.3174 9.92016 11.342 9.81686C11.3665 9.71357 11.3642 9.60571 11.3351 9.50359C11.3061 9.40147 11.2513 9.30851 11.1761 9.2336L10.254 8.28623C10.1326 8.17253 9.97294 8.10848 9.80661 8.10673C9.64028 8.10497 9.47934 8.16564 9.35556 8.27675L8.72398 8.90833C8.08451 9.56676 8.76345 11.3383 10.3029 12.9204C11.8424 14.5025 13.6061 15.2525 14.2787 14.5941L14.9103 13.9625C15.0243 13.8413 15.0886 13.6816 15.0904 13.5152C15.0921 13.3487 15.0312 13.1877 14.9198 13.0641L14.0071 12.131Z" fill="black"/>
<path d="M12 0C9.62663 0 7.30655 0.703788 5.33316 2.02236C3.35977 3.34094 1.8217 5.21509 0.913451 7.4078C0.00519938 9.60051 -0.232441 12.0133 0.230582 14.3411C0.693605 16.6689 1.83649 18.8071 3.51472 20.4853C5.19295 22.1635 7.33115 23.3064 9.65892 23.7694C11.9867 24.2324 14.3995 23.9948 16.5922 23.0866C18.7849 22.1783 20.6591 20.6402 21.9776 18.6668C23.2962 16.6935 24 14.3734 24 12C24 8.8174 22.7357 5.76516 20.4853 3.51472C18.2348 1.26428 15.1826 0 12 0ZM17.6842 12C17.6842 13.1725 17.2184 14.297 16.3893 15.1262C15.5602 15.9553 14.4357 16.4211 13.2632 16.4211H11.0353L9.20053 18.2558C9.17088 18.2844 9.13353 18.3037 9.09306 18.3114C9.05259 18.319 9.01076 18.3147 8.97271 18.299C8.93465 18.2832 8.90202 18.2567 8.87882 18.2227C8.85562 18.1886 8.84286 18.1486 8.84211 18.1074V15.9963C8.08593 15.6376 7.44709 15.0717 6.99988 14.3642C6.55266 13.6568 6.31544 12.8369 6.3158 12V10.1053C6.3158 8.93273 6.78158 7.80822 7.61069 6.97911C8.4398 6.15 9.56431 5.68421 10.7368 5.68421H13.2632C14.4357 5.68421 15.5602 6.15 16.3893 6.97911C17.2184 7.80822 17.6842 8.93273 17.6842 10.1053V12Z" fill="black"/>
<path d="M12.5748 7.42114C12.499 7.42114 12.4232 7.4243 12.3474 7.43062C12.2917 7.4348 12.2399 7.46095 12.2035 7.50329C12.1671 7.54563 12.149 7.60071 12.1532 7.65641C12.1574 7.7121 12.1835 7.76385 12.2259 7.80027C12.2682 7.83669 12.3233 7.8548 12.379 7.85062H12.5748C13.2448 7.85062 13.8874 8.11678 14.3611 8.59056C14.8349 9.06433 15.1011 9.70691 15.1011 10.3769C15.1016 10.5731 15.0788 10.7687 15.0332 10.9596C15.0244 10.9873 15.0214 11.0165 15.0244 11.0454C15.0275 11.0744 15.0364 11.1024 15.0507 11.1277C15.0651 11.153 15.0844 11.1751 15.1077 11.1926C15.1309 11.21 15.1575 11.2225 15.1858 11.2293C15.2141 11.236 15.2435 11.2369 15.2721 11.2318C15.3007 11.2266 15.328 11.2157 15.3522 11.1996C15.3764 11.1834 15.397 11.1625 15.4128 11.138C15.4285 11.1136 15.439 11.0862 15.4437 11.0575C15.496 10.8344 15.5225 10.606 15.5227 10.3769C15.5235 9.59412 15.2134 8.84301 14.6606 8.28874C14.1078 7.73447 13.3576 7.4224 12.5748 7.42114Z" fill="black"/>
</g>
<defs>
<clipPath id="clip0_362_894">
<rect width="24" height="24" fill="white"/>
</clipPath>
</defs>
</svg>
