<svg width="24" height="24" viewBox="0 0 24 24" fill="none" xmlns="http://www.w3.org/2000/svg">
<g clip-path="url(#clip0_859_2701)">
<path fill-rule="evenodd" clip-rule="evenodd" d="M12.0286 0.641479C5.60414 0.641479 0.384277 5.82291 0.384277 12.2572C0.384277 18.6912 5.60414 23.8727 12.0286 23.8727C18.453 23.8727 23.6155 18.6912 23.6155 12.2572C23.6155 5.82291 18.453 0.641479 12.0286 0.641479ZM12.9464 15.3888C12.086 15.3318 11.7418 14.8764 11.0534 14.4778C10.7093 16.4136 10.2504 18.2356 8.93109 19.2036C8.52957 16.2998 9.50469 14.1362 9.96359 11.8016C9.16052 10.492 10.0783 7.75897 11.7418 8.44214C13.8068 9.23938 9.96359 13.4528 12.5448 13.9651C15.2982 14.5346 16.388 9.23938 14.7246 7.53114C12.258 5.0827 7.61178 7.4741 8.1854 11.0043C8.35747 11.8586 9.2179 12.1432 8.58692 13.339C6.9808 12.9974 6.52192 11.7445 6.57927 10.1504C6.69398 7.4741 8.98843 5.59506 11.3402 5.31052C14.2657 4.96894 17.019 6.39231 17.3632 9.1253C17.8221 12.2572 16.0439 15.6166 12.9464 15.3888Z" fill="black"/>
</g>
<defs>
<clipPath id="clip0_859_2701">
<rect width="24" height="24" fill="white"/>
</clipPath>
</defs>
</svg>
