<svg width="34" height="33" viewBox="0 0 34 33" fill="none" xmlns="http://www.w3.org/2000/svg">
<path d="M31.4932 14.104L25.1366 20.3321L26.6377 29.1286C26.703 29.5132 26.5459 29.902 26.2316 30.1317C26.054 30.262 25.8428 30.3277 25.6315 30.3277C25.4693 30.3277 25.306 30.2887 25.157 30.2097L17.2972 26.0566L9.43843 30.2087C9.09555 30.3913 8.67817 30.3615 8.36386 30.1307C8.04955 29.901 7.89239 29.5122 7.9577 29.1276L9.45884 20.3311L3.1012 14.104C2.82363 13.8311 2.7226 13.4229 2.84302 13.0526C2.96344 12.6823 3.28285 12.4105 3.66758 12.3541L12.453 11.072L16.3818 3.06937C16.7257 2.3688 17.8687 2.3688 18.2126 3.06937L22.1415 11.072L30.9268 12.3541C31.3116 12.4105 31.631 12.6813 31.7514 13.0526C31.8718 13.4239 31.7708 13.8301 31.4932 14.104Z" fill="#FECA0A"/>
</svg>
