<svg width="34" height="33" viewBox="0 0 34 33" fill="none" xmlns="http://www.w3.org/2000/svg">
<path d="M31.083 14.104L24.7264 20.3321L26.2276 29.1286C26.2929 29.5132 26.1357 29.902 25.8214 30.1317C25.6439 30.262 25.4326 30.3277 25.2214 30.3277C25.0591 30.3277 24.8958 30.2887 24.7468 30.2097L16.887 26.0566L9.02828 30.2087C8.68539 30.3913 8.26801 30.3615 7.9537 30.1307C7.63939 29.901 7.48224 29.5122 7.54755 29.1276L9.04869 20.3311L2.69105 14.104C2.41348 13.8311 2.31245 13.4229 2.43286 13.0526C2.55328 12.6823 2.8727 12.4105 3.25742 12.3541L12.0428 11.072L15.9717 3.06937C16.3156 2.3688 17.4585 2.3688 17.8024 3.06937L21.7313 11.072L30.5167 12.3541C30.9014 12.4105 31.2208 12.6813 31.3412 13.0526C31.4616 13.4239 31.3606 13.8301 31.083 14.104Z" fill="#959595"/>
</svg>
