<svg width="15" height="15" viewBox="0 0 15 15" fill="none" xmlns="http://www.w3.org/2000/svg">
<path d="M14.021 6.44553L11.1012 9.29178L11.7907 13.3118C11.8207 13.4876 11.7485 13.6652 11.6042 13.7702C11.5226 13.8297 11.4256 13.8597 11.3285 13.8597C11.254 13.8597 11.179 13.8419 11.1106 13.8058L7.50026 11.9079L3.89041 13.8054C3.73291 13.8888 3.54119 13.8752 3.39682 13.7697C3.25244 13.6647 3.18026 13.4871 3.21026 13.3113L3.89979 9.29131L0.979475 6.44553C0.851975 6.32084 0.805569 6.13428 0.860882 5.96506C0.916194 5.79584 1.06291 5.67162 1.23963 5.64584L5.2751 5.0599L7.07979 1.40271C7.23776 1.08256 7.76276 1.08256 7.92072 1.40271L9.72541 5.0599L13.7609 5.64584C13.9376 5.67162 14.0843 5.79537 14.1396 5.96506C14.1949 6.13475 14.1485 6.32037 14.021 6.44553Z" fill="#FECA0A"/>
</svg>
